<svg width="43" height="46" viewBox="0 0 43 46" fill="none" xmlns="http://www.w3.org/2000/svg">
<path d="M32.4998 42.2741L42.8173 45.1927C42.8173 45.1927 42.7858 34.6279 42.4116 23.4656C42.3913 22.845 42.3903 22.3106 42.395 21.9206C42.4033 21.7122 42.4079 21.502 42.4098 21.2917C42.4107 21.2574 42.4116 21.2398 42.4116 21.2398V21.2417C42.4107 21.2065 42.4116 21.1722 42.4116 21.137C42.4116 9.4635 32.9481 0 21.2746 0C9.60107 0 0.137573 9.4635 0.137573 21.137C0.137573 32.8106 9.60107 42.2741 21.2746 42.2741C25.3983 42.2741 29.2459 41.0922 32.498 39.0498V42.2741H32.4998ZM21.2765 32.3613C15.078 32.3613 10.0522 27.3364 10.0522 21.138C10.0522 14.9395 15.0771 9.91458 21.2765 9.91458C27.4758 9.91458 32.4998 14.9395 32.4998 21.138C32.4998 27.3364 27.4749 32.3613 21.2765 32.3613Z" fill="#1B1B1B"/>
</svg>
