<svg width="21" height="21" viewBox="0 0 21 21" fill="none" xmlns="http://www.w3.org/2000/svg">
<path d="M9.61941 9.01934L9.17228 9.0356L9.18854 11.8647H9.61941V9.01934ZM9.18854 6.16586L9.55437 6.7268L9.60315 2.94656H9.18041V6.16586H9.18854ZM19.6106 2.94656H20.0415V11.8728H19.6106V2.94656ZM11.7331 9.24697H12.7493V10.9054H11.7331V9.24697ZM13.4322 7.58854H14.4484V10.9054H13.4322V7.58854ZM15.1394 6.9463H16.1556V10.9135H15.1394V6.9463ZM16.8385 5.40168H17.8547V10.9135H16.8385V5.40168ZM5.09937 3.77577C6.02614 3.77577 6.77406 3.02785 6.77406 2.10108C6.77406 1.17431 6.02614 0.426392 5.09937 0.426392C4.1726 0.426392 3.42468 1.17431 3.42468 2.10108C3.42468 3.02785 4.1726 3.77577 5.09937 3.77577ZM9.29423 8.63725H12.0339C12.985 8.63725 13.0501 7.14954 12.0014 7.14954H9.37552L9.30236 7.04386L7.85529 4.94643C7.4163 4.32045 6.90414 4.05218 6.19686 4.05218H3.96123C3.25396 4.05218 2.7418 4.34484 2.3028 4.94643L0.880127 7.0276V8.63725V11.2956C0.880127 11.7021 1.21344 12.0354 1.61992 12.0354C2.0264 12.0354 2.35971 11.7021 2.35971 11.2956V7.62106L3.03446 6.65364L3.05072 19.474C3.05072 20.0918 3.48159 20.3926 3.92871 20.4251C4.41649 20.4495 4.93678 20.1243 4.92865 19.4414L4.94491 11.9866H5.09124H5.23757L5.25383 19.4414C5.25383 20.0999 5.73348 20.4251 6.21312 20.4251C6.67651 20.4251 7.13176 20.1081 7.13176 19.474L7.15615 6.65364L8.30242 8.29581C8.46501 8.54783 8.75768 8.63725 8.99343 8.63725H9.29423ZM8.68451 2.2149V2.94656H9.19667H9.61941H19.6188H20.0496H20.5699V2.2149H8.68451ZM9.61941 11.8728H9.18854H8.67638V12.6045H14.1882V12.5394H14.7248V12.6045H20.5537V11.8728H20.0334H19.6025H9.61941ZM14.7248 12.5394H14.1882V12.6045V17.6855L11.8307 20.043H12.5867L14.1882 18.4415V20.043H14.7248V18.4415L16.3426 20.043H17.0905L14.7329 17.6855V12.6045V12.5394H14.7248Z" fill="#1B1B1B"/>
</svg>
