<svg width="15" height="15" viewBox="0 0 15 15" fill="none" xmlns="http://www.w3.org/2000/svg">
<path d="M10.9646 14.0326L14.3891 15.0013C14.3891 15.0013 14.3786 11.4948 14.2544 7.78987C14.2477 7.58389 14.2473 7.4065 14.2489 7.27707C14.2517 7.2079 14.2532 7.13811 14.2538 7.06832C14.2541 7.05695 14.2544 7.05111 14.2544 7.05111V7.05172C14.2541 7.04004 14.2544 7.02866 14.2544 7.01698C14.2544 3.14239 11.1134 0.00134277 7.23878 0.00134277C3.36419 0.00134277 0.223145 3.14239 0.223145 7.01698C0.223145 10.8916 3.36419 14.0326 7.23878 14.0326C8.60748 14.0326 9.88456 13.6403 10.964 12.9624V14.0326H10.9646ZM7.2394 10.7425C5.18205 10.7425 3.51392 9.07463 3.51392 7.01729C3.51392 4.95994 5.18174 3.29211 7.2394 3.29211C9.29705 3.29211 10.9646 4.95994 10.9646 7.01729C10.9646 9.07463 9.29674 10.7425 7.2394 10.7425Z" fill="#1C6EC4"/>
</svg>
