<svg width="25" height="25" viewBox="0 0 25 25" fill="none" xmlns="http://www.w3.org/2000/svg">
<path fill-rule="evenodd" clip-rule="evenodd" d="M17.8291 0.816895H7.16239C3.4805 0.816895 0.495728 3.80167 0.495728 7.48356V18.1502C0.495728 21.8321 3.4805 24.8169 7.16239 24.8169H17.8291C21.5109 24.8169 24.4957 21.8321 24.4957 18.1502V7.48356C24.4957 3.80167 21.5109 0.816895 17.8291 0.816895ZM22.1624 18.1502C22.1551 20.5404 20.2192 22.4762 17.8291 22.4836H7.16239C4.77219 22.4762 2.83638 20.5404 2.82906 18.1502V7.48356C2.83638 5.09336 4.77219 3.15755 7.16239 3.15023H17.8291C20.2192 3.15755 22.1551 5.09336 22.1624 7.48356V18.1502ZM18.8291 7.81689C19.5655 7.81689 20.1624 7.21993 20.1624 6.48356C20.1624 5.74719 19.5655 5.15023 18.8291 5.15023C18.0927 5.15023 17.4957 5.74719 17.4957 6.48356C17.4957 7.21993 18.0927 7.81689 18.8291 7.81689ZM12.4957 6.81689C9.18202 6.81689 6.49573 9.50319 6.49573 12.8169C6.49573 16.1306 9.18202 18.8169 12.4957 18.8169C15.8095 18.8169 18.4957 16.1306 18.4957 12.8169C18.4993 11.2245 17.8683 9.69632 16.7423 8.57033C15.6163 7.44435 14.0881 6.81335 12.4957 6.81689ZM8.82906 12.8169C8.82906 14.842 10.4707 16.4836 12.4957 16.4836C14.5208 16.4836 16.1624 14.842 16.1624 12.8169C16.1624 10.7918 14.5208 9.15023 12.4957 9.15023C10.4707 9.15023 8.82906 10.7918 8.82906 12.8169Z" fill="white"/>
</svg>
