<svg width="107" height="113" viewBox="0 0 107 113" fill="none" xmlns="http://www.w3.org/2000/svg">
<path d="M80.9087 105.448L106.473 112.679C106.473 112.679 106.395 86.5028 105.467 58.846C105.417 57.3083 105.415 55.9841 105.426 55.0179C105.447 54.5016 105.458 53.9806 105.463 53.4597C105.465 53.3747 105.467 53.3311 105.467 53.3311V53.3357C105.465 53.2485 105.467 53.1636 105.467 53.0764C105.467 24.1527 82.0195 0.704834 53.0958 0.704834C24.1721 0.704834 0.724243 24.1527 0.724243 53.0764C0.724243 82.0001 24.1721 105.448 53.0958 105.448C63.3131 105.448 72.8464 102.52 80.9041 97.4591V105.448H80.9087ZM53.1004 80.887C37.7423 80.887 25.2898 68.4367 25.2898 53.0787C25.2898 37.7206 37.7401 25.2703 53.1004 25.2703C68.4607 25.2703 80.9087 37.7206 80.9087 53.0787C80.9087 68.4367 68.4584 80.887 53.1004 80.887Z" fill="url(#paint0_linear_45_358)"/>
<defs>
<linearGradient id="paint0_linear_45_358" x1="0.724243" y1="3.41041" x2="128.593" y2="59.9197" gradientUnits="userSpaceOnUse">
<stop offset="0.586868" stop-color="#EFEFEF"/>
<stop offset="1" stop-color="#DCDCDC"/>
</linearGradient>
</defs>
</svg>
