<svg width="15" height="16" viewBox="0 0 15 16" fill="none" xmlns="http://www.w3.org/2000/svg">
<path d="M10.9646 15.0067L14.3891 15.9755C14.3891 15.9755 14.3786 12.4689 14.2544 8.76399C14.2477 8.55801 14.2473 8.38062 14.2489 8.25119C14.2517 8.18202 14.2532 8.11223 14.2538 8.04244C14.2541 8.03107 14.2544 8.02523 14.2544 8.02523V8.02584C14.2541 8.01416 14.2544 8.00278 14.2544 7.9911C14.2544 4.11651 11.1134 0.975464 7.23878 0.975464C3.36419 0.975464 0.223145 4.11651 0.223145 7.9911C0.223145 11.8657 3.36419 15.0067 7.23878 15.0067C8.60748 15.0067 9.88456 14.6145 10.964 13.9366V15.0067H10.9646ZM7.2394 11.7166C5.18205 11.7166 3.51392 10.0488 3.51392 7.99141C3.51392 5.93406 5.18174 4.26623 7.2394 4.26623C9.29705 4.26623 10.9646 5.93406 10.9646 7.99141C10.9646 10.0488 9.29674 11.7166 7.2394 11.7166Z" fill="#1C6EC4" fill-opacity="0.5"/>
</svg>
