<svg width="25" height="25" viewBox="0 0 25 25" fill="none" xmlns="http://www.w3.org/2000/svg">
<path fill-rule="evenodd" clip-rule="evenodd" d="M2.49573 0.816895C1.39115 0.816895 0.495728 1.71232 0.495728 2.81689V22.8169C0.495728 23.9214 1.39115 24.8169 2.49573 24.8169H22.4957C23.6003 24.8169 24.4957 23.9214 24.4957 22.8169V2.81689C24.4957 1.71232 23.6003 0.816895 22.4957 0.816895H2.49573ZM7.85674 6.15385C7.86425 7.42885 6.90987 8.21448 5.77737 8.20885C4.71049 8.20323 3.78049 7.35385 3.78611 6.15573C3.79174 5.02885 4.68237 4.12323 5.83925 4.14948C7.01299 4.17573 7.86425 5.03636 7.85674 6.15385ZM12.8687 9.83257H9.50867H9.50679V21.2457H13.058V20.9794C13.058 20.4729 13.0576 19.9662 13.0572 19.4594C13.0561 18.1077 13.0549 16.7545 13.0619 15.4032C13.0637 15.075 13.0787 14.7338 13.1631 14.4206C13.4799 13.2506 14.5319 12.495 15.7056 12.6808C16.4593 12.7988 16.958 13.2357 17.168 13.9464C17.2975 14.3906 17.3556 14.8688 17.3612 15.332C17.3764 16.7288 17.3743 18.1256 17.3721 19.5225C17.3713 20.0156 17.3705 20.5089 17.3705 21.002V21.2438H20.9331V20.9701C20.9331 20.3674 20.9328 19.7649 20.9324 19.1624C20.9317 17.6564 20.9309 16.1504 20.9349 14.6438C20.9368 13.9632 20.8637 13.292 20.6968 12.6338C20.4475 11.655 19.9319 10.845 19.0937 10.2601C18.4993 9.84381 17.8468 9.5757 17.1175 9.5457C17.0344 9.54224 16.9507 9.53772 16.8665 9.53318C16.4936 9.51302 16.1145 9.49253 15.758 9.56444C14.738 9.76882 13.8419 10.2357 13.1649 11.0588C13.0863 11.1532 13.0093 11.249 12.8945 11.3921L12.8687 11.4245V9.83257ZM4.07125 21.2494H7.60562V9.84H4.07125V21.2494Z" fill="white"/>
</svg>
