<svg width="48" height="50" viewBox="0 0 48 50" fill="none" xmlns="http://www.w3.org/2000/svg">
<path d="M36.2423 46.7709L47.6573 50C47.6573 50 47.6224 38.3114 47.2084 25.9618C47.1859 25.2752 47.1849 24.6839 47.19 24.2524C47.1992 24.0218 47.2043 23.7892 47.2064 23.5566C47.2074 23.5187 47.2084 23.4992 47.2084 23.4992V23.5013C47.2074 23.4623 47.2084 23.4244 47.2084 23.3855C47.2084 10.4702 36.7383 0 23.823 0C10.9077 0 0.4375 10.4702 0.4375 23.3855C0.4375 36.3008 10.9077 46.7709 23.823 46.7709C28.3853 46.7709 32.6422 45.4633 36.2402 43.2037V46.7709H36.2423Z" fill="#EFEFEF"/>
<path d="M24.4375 15C20.2956 15 16.9375 18.3581 16.9375 22.5C16.9375 24.1309 17.4722 25.6275 18.3609 26.8531C18.3769 26.8825 18.3794 26.9153 18.3975 26.9434L23.3975 34.4434C23.6294 34.7913 24.02 35 24.4375 35C24.855 35 25.2456 34.7913 25.4775 34.4434L30.4775 26.9434C30.4959 26.9153 30.4981 26.8825 30.5141 26.8531C31.4028 25.6275 31.9375 24.1309 31.9375 22.5C31.9375 18.3581 28.5794 15 24.4375 15ZM24.4375 25C23.0569 25 21.9375 23.8806 21.9375 22.5C21.9375 21.1194 23.0569 20 24.4375 20C25.8181 20 26.9375 21.1194 26.9375 22.5C26.9375 23.8806 25.8181 25 24.4375 25Z" fill="#1B1B1B"/>
</svg>
