<svg width="48" height="51" viewBox="0 0 48 51" fill="none" xmlns="http://www.w3.org/2000/svg">
<path d="M36.2427 46.8426L47.6578 50.0717C47.6578 50.0717 47.6229 38.383 47.2089 26.0334C47.1864 25.3468 47.1853 24.7555 47.1905 24.3241C47.1997 24.0935 47.2048 23.8609 47.2069 23.6283C47.2079 23.5903 47.2089 23.5709 47.2089 23.5709V23.5729C47.2079 23.534 47.2089 23.4961 47.2089 23.4571C47.2089 10.5418 36.7387 0.0716553 23.8234 0.0716553C10.9082 0.0716553 0.437988 10.5418 0.437988 23.4571C0.437988 36.3724 10.9082 46.8426 23.8234 46.8426C28.3858 46.8426 32.6427 45.535 36.2407 43.2753V46.8426H36.2427Z" fill="#CAE4FF"/>
</svg>
