<svg width="17" height="21" viewBox="0 0 17 21" fill="none" xmlns="http://www.w3.org/2000/svg">
<path d="M16.393 13.0743C16.2129 12.7986 15.9056 12.6324 15.5766 12.6324H14.2062C13.6675 12.6324 13.2309 13.0691 13.2309 13.6078C13.2309 14.047 13.5212 14.4183 13.9201 14.5405C12.8177 16.0429 11.1485 17.0466 9.29045 17.3099V9.60394H11.4522C11.9909 9.60394 12.4275 9.16731 12.4275 8.62859C12.4275 8.08987 11.9909 7.65323 11.4522 7.65323H9.29045V5.58873C10.1371 5.21387 10.7285 4.36758 10.7285 3.38215C10.7285 2.04981 9.64744 0.969116 8.31477 0.969116C6.98211 0.969116 5.90142 2.04981 5.90142 3.38247C5.90142 4.36791 6.49281 5.21387 7.33942 5.58905V7.65356H5.17803C4.63931 7.65356 4.20267 8.09019 4.20267 8.62891C4.20267 9.16763 4.63931 9.60427 5.17803 9.60427H7.33942V17.3102C5.48104 17.0469 3.81188 16.0436 2.70973 14.5409C3.10865 14.4186 3.39898 14.0473 3.39898 13.6081C3.39898 13.0694 2.96235 12.6327 2.42362 12.6327H1.05325C0.723903 12.6327 0.416991 12.7989 0.236876 13.0746C0.0567598 13.3503 0.0278243 13.6982 0.160148 13.9995C1.44762 16.9376 4.2017 18.9267 7.33974 19.2726V19.9938C7.33974 20.5325 7.77638 20.9691 8.3151 20.9691C8.85382 20.9691 9.29045 20.5325 9.29045 19.9938V19.2726C12.4282 18.9267 15.1826 16.9376 16.4701 13.9995C16.602 13.6978 16.5731 13.35 16.393 13.0743Z" fill="#1B1B1B"/>
</svg>
