<svg width="17" height="21" viewBox="0 0 17 21" fill="none" xmlns="http://www.w3.org/2000/svg">
<path d="M16.5162 12.9356C16.3361 12.6599 16.0288 12.4938 15.6998 12.4938H14.3294C13.7907 12.4938 13.3541 12.9304 13.3541 13.4691C13.3541 13.9083 13.6444 14.2796 14.0433 14.4019C12.9408 15.9042 11.2717 16.9079 9.41362 17.1712V9.46527H11.5753C12.1141 9.46527 12.5507 9.02864 12.5507 8.48991C12.5507 7.95119 12.1141 7.51456 11.5753 7.51456H9.41362V5.45006C10.2602 5.07519 10.8516 4.22891 10.8516 3.24347C10.8516 1.91114 9.7706 0.830444 8.43794 0.830444C7.10528 0.830444 6.02459 1.91114 6.02459 3.2438C6.02459 4.22923 6.61598 5.07519 7.46259 5.45038V7.51488H5.3012C4.76248 7.51488 4.32584 7.95152 4.32584 8.49024C4.32584 9.02896 4.76248 9.4656 5.3012 9.4656H7.46259V17.1716C5.60421 16.9082 3.93505 15.9049 2.8329 14.4022C3.23182 14.28 3.52215 13.9087 3.52215 13.4694C3.52215 12.9307 3.08551 12.4941 2.54679 12.4941H1.17642C0.847072 12.4941 0.54016 12.6602 0.360044 12.9359C0.179929 13.2116 0.150993 13.5595 0.283317 13.8609C1.57079 16.799 4.32487 18.788 7.46291 19.134V19.8551C7.46291 20.3938 7.89955 20.8304 8.43827 20.8304C8.97699 20.8304 9.41362 20.3938 9.41362 19.8551V19.134C12.5513 18.788 15.3057 16.799 16.5932 13.8609C16.7252 13.5592 16.6963 13.2113 16.5162 12.9356Z" fill="#1B1B1B"/>
</svg>
