<svg width="17" height="21" viewBox="0 0 17 21" fill="none" xmlns="http://www.w3.org/2000/svg">
<path d="M16.3931 13.0743C16.213 12.7986 15.9058 12.6324 15.5767 12.6324H14.2064C13.6676 12.6324 13.231 13.0691 13.231 13.6078C13.231 14.047 13.5213 14.4183 13.9203 14.5405C12.8178 16.0429 11.1486 17.0466 9.29058 17.3099V9.60394H11.4523C11.991 9.60394 12.4276 9.16731 12.4276 8.62859C12.4276 8.08987 11.991 7.65323 11.4523 7.65323H9.29058V5.58873C10.1372 5.21387 10.7286 4.36758 10.7286 3.38215C10.7286 2.04981 9.64756 0.969116 8.3149 0.969116C6.98223 0.969116 5.90154 2.04981 5.90154 3.38247C5.90154 4.36791 6.49293 5.21387 7.33954 5.58905V7.65356H5.17815C4.63943 7.65356 4.2028 8.09019 4.2028 8.62891C4.2028 9.16763 4.63943 9.60427 5.17815 9.60427H7.33954V17.3102C5.48116 17.0469 3.812 16.0436 2.70985 14.5409C3.10877 14.4186 3.3991 14.0473 3.3991 13.6081C3.3991 13.0694 2.96247 12.6327 2.42375 12.6327H1.05337C0.724025 12.6327 0.417113 12.7989 0.236998 13.0746C0.0568818 13.3503 0.0279464 13.6982 0.16027 13.9995C1.44774 16.9376 4.20182 18.9267 7.33986 19.2726V19.9938C7.33986 20.5325 7.7765 20.9691 8.31522 20.9691C8.85394 20.9691 9.29058 20.5325 9.29058 19.9938V19.2726C12.4283 18.9267 15.1827 16.9376 16.4702 13.9995C16.6022 13.6978 16.5732 13.35 16.3931 13.0743Z" fill="white"/>
</svg>
