<svg width="48" height="51" viewBox="0 0 48 51" fill="none" xmlns="http://www.w3.org/2000/svg">
<path d="M36.5097 47.74L47.9247 50.9691C47.9247 50.9691 47.8899 39.2805 47.4759 26.9309C47.4533 26.2443 47.4523 25.653 47.4574 25.2215C47.4667 24.991 47.4718 24.7583 47.4738 24.5257C47.4748 24.4878 47.4759 24.4683 47.4759 24.4683V24.4704C47.4748 24.4314 47.4759 24.3935 47.4759 24.3546C47.4759 11.4393 37.0057 0.969116 24.0904 0.969116C11.1751 0.969116 0.704956 11.4393 0.704956 24.3546C0.704956 37.2699 11.1751 47.74 24.0904 47.74C28.6527 47.74 32.9097 46.4324 36.5077 44.1728V47.74H36.5097ZM24.0925 36.7729C17.2346 36.7729 11.6742 31.2134 11.6742 24.3556C11.6742 17.4978 17.2336 11.9384 24.0925 11.9384C30.9513 11.9384 36.5097 17.4978 36.5097 24.3556C36.5097 31.2134 30.9503 36.7729 24.0925 36.7729Z" fill="#EFEFEF"/>
<circle cx="24.8492" cy="25.6926" r="14.4916" fill="#EFEFEF"/>
</svg>
