<svg width="107" height="113" viewBox="0 0 107 113" fill="none" xmlns="http://www.w3.org/2000/svg">
<path d="M80.9086 105.448L106.472 112.679C106.472 112.679 106.394 86.5028 105.467 58.846C105.417 57.3083 105.414 55.9841 105.426 55.0179C105.447 54.5016 105.458 53.9806 105.463 53.4597C105.465 53.3747 105.467 53.3311 105.467 53.3311V53.3357C105.465 53.2485 105.467 53.1636 105.467 53.0764C105.467 24.1527 82.0194 0.704834 53.0957 0.704834C24.172 0.704834 0.724121 24.1527 0.724121 53.0764C0.724121 82.0001 24.172 105.448 53.0957 105.448C63.3129 105.448 72.8463 102.52 80.904 97.4591V105.448H80.9086ZM53.1003 80.887C37.7422 80.887 25.2896 68.4367 25.2896 53.0787C25.2896 37.7206 37.7399 25.2703 53.1003 25.2703C68.4606 25.2703 80.9086 37.7206 80.9086 53.0787C80.9086 68.4367 68.4583 80.887 53.1003 80.887Z" fill="#E3F0FC"/>
</svg>
