<svg width="22" height="22" viewBox="0 0 22 22" fill="none" xmlns="http://www.w3.org/2000/svg">
<path fill-rule="evenodd" clip-rule="evenodd" d="M14.6484 6.75765C14.7193 6.90135 14.8226 7.02661 14.9502 7.12357C15.0794 7.22129 15.229 7.28871 15.3878 7.32086L20.3925 8.33295C20.589 8.37117 20.7705 8.46493 20.9153 8.60311C21.0601 8.74129 21.1623 8.91809 21.2097 9.11257C21.2552 9.30614 21.2433 9.50877 21.1755 9.6957C21.1078 9.88264 20.987 10.0458 20.8281 10.1653L16.9341 13.1192C16.7822 13.233 16.6647 13.3866 16.5948 13.563C16.5253 13.7384 16.5064 13.9297 16.5402 14.1153L17.5908 19.9632C17.6254 20.1582 17.6027 20.359 17.5254 20.5414C17.4482 20.7237 17.3197 20.8798 17.1556 20.9906C16.9896 21.1036 16.7954 21.1682 16.5947 21.177C16.394 21.1858 16.1949 21.1385 16.0196 21.0404L11.5207 18.5121C11.3595 18.4219 11.1779 18.3745 10.9932 18.3745C10.8085 18.3745 10.6268 18.4219 10.4656 18.5121L5.9664 21.0404C5.79128 21.1388 5.59214 21.1863 5.39147 21.1775C5.1908 21.1687 4.99659 21.104 4.83077 20.9906C4.66664 20.8798 4.53817 20.7237 4.46093 20.5414C4.38368 20.359 4.36097 20.1582 4.39555 19.9632L5.4462 14.1163C5.47998 13.9307 5.46105 13.7394 5.39157 13.564C5.32163 13.3876 5.2042 13.234 5.05229 13.1203L1.15826 10.1663C0.99931 10.0468 0.878576 9.88366 0.810809 9.69672C0.743042 9.50979 0.73118 9.30717 0.776642 9.11359C0.824075 8.91918 0.926221 8.74243 1.07098 8.60426C1.21574 8.46609 1.39706 8.37229 1.59348 8.33397L6.59754 7.32189C6.75633 7.28999 6.90582 7.22254 7.0348 7.12459C7.16238 7.02755 7.26577 6.90231 7.3369 6.75867L10.0396 1.29276C10.129 1.11668 10.2655 0.968797 10.4338 0.865498C10.6021 0.762198 10.7957 0.70752 10.9932 0.70752C11.1907 0.70752 11.3843 0.762198 11.5526 0.865498C11.7209 0.968797 11.8573 1.11668 11.9467 1.29276L14.6484 6.75765Z" fill="#FDB926"/>
</svg>
