<svg width="88" height="88" viewBox="0 0 88 88" fill="none" xmlns="http://www.w3.org/2000/svg">
<circle cx="44" cy="44" r="44" fill="#D9D9D9"/>
<path d="M43.72 41.75C36.91 41.75 35.53 31.43 35.53 31.43C34.72 26.06 37.18 20 43.63 20C50.11 20 52.57 26.06 51.76 31.43C51.76 31.43 50.53 41.75 43.72 41.75ZM43.72 49.46L51.88 44C59.05 44 65.44 50.99 65.44 57.59V65.06C65.44 65.06 54.49 68.45 43.72 68.45C32.77 68.45 22 65.06 22 65.06V57.59C22 50.84 27.82 44.15 35.41 44.15L43.72 49.46Z" fill="black"/>
</svg>
