<svg width="48" height="51" viewBox="0 0 48 51" fill="none" xmlns="http://www.w3.org/2000/svg">
<path fill-rule="evenodd" clip-rule="evenodd" d="M47.3999 50.0717L35.9849 46.8426H35.9829V43.2753C32.3849 45.535 28.128 46.8426 23.5656 46.8426C10.6503 46.8426 0.180176 36.3724 0.180176 23.4571C0.180176 10.5418 10.6503 0.0716553 23.5656 0.0716553C36.4809 0.0716553 46.9511 10.5418 46.9511 23.4571C46.9511 23.4956 46.9501 23.5331 46.9511 23.5715C46.9509 23.5753 46.95 23.5944 46.949 23.6283C46.947 23.8609 46.9419 24.0935 46.9327 24.3241C46.9275 24.7555 46.9286 25.3468 46.9511 26.0334C47.3651 38.383 47.3999 50.0717 47.3999 50.0717ZM46.9511 23.5715C46.9511 23.572 46.9511 23.5725 46.9511 23.5729V23.5709C46.9511 23.5709 46.9511 23.5711 46.9511 23.5715ZM15.4589 33.6794C17.5697 28.392 19.9814 22.3508 29.0534 20.3348C29.0534 20.3348 18.5271 20.3348 15.106 30.0717C14.0595 29.0047 13.4094 27.6118 13.2639 26.1243C13.2639 24.019 15.3692 19.5453 20.6323 18.4927C22.1294 18.1933 23.7967 17.9578 25.4406 17.7255C29.5762 17.1413 33.5633 16.5781 34.3165 15.0717C34.3165 15.0717 31.1587 32.9664 19.5797 32.9664C19.114 32.9288 18.6563 32.8224 18.2218 32.6506L17.1692 35.0717L15.1797 34.3769C15.2725 34.1462 15.3654 33.9135 15.4589 33.6794Z" fill="#CAE4FF"/>
</svg>
