<svg width="48" height="51" viewBox="0 0 48 51" fill="none" xmlns="http://www.w3.org/2000/svg">
<path d="M35.9851 46.8426L47.4001 50.0717C47.4001 50.0717 47.3652 38.383 46.9512 26.0334C46.9287 25.3468 46.9277 24.7555 46.9328 24.3241C46.942 24.0935 46.9471 23.8609 46.9492 23.6283C46.9502 23.5903 46.9512 23.5709 46.9512 23.5709V23.5729C46.9502 23.534 46.9512 23.4961 46.9512 23.4571C46.9512 10.5418 36.481 0.0716553 23.5658 0.0716553C10.6505 0.0716553 0.180298 10.5418 0.180298 23.4571C0.180298 36.3724 10.6505 46.8426 23.5658 46.8426C28.1281 46.8426 32.385 45.535 35.983 43.2753V46.8426H35.9851ZM23.5678 35.8754C16.71 35.8754 11.1495 30.316 11.1495 23.4581C11.1495 16.6003 16.709 11.0409 23.5678 11.0409C30.4267 11.0409 35.9851 16.6003 35.9851 23.4581C35.9851 30.316 30.4256 35.8754 23.5678 35.8754Z" fill="#EFEFEF"/>
<circle cx="24.3246" cy="24.7952" r="14.4916" fill="#EFEFEF"/>
<path d="M29.0534 20.3348C19.5797 22.4401 17.3692 28.9348 15.1797 34.3769L17.1692 35.0717L18.2218 32.6506C18.6563 32.8224 19.114 32.9288 19.5797 32.9664C31.1587 32.9664 34.3165 15.0717 34.3165 15.0717C33.2639 17.1769 25.8955 17.4401 20.6323 18.4927C15.3692 19.5453 13.2639 24.019 13.2639 26.1243C13.4094 27.6118 14.0594 29.0047 15.106 30.0717C18.5271 20.3348 29.0534 20.3348 29.0534 20.3348Z" fill="#1B1B1B"/>
</svg>
