<svg width="21" height="21" viewBox="0 0 21 21" fill="none" xmlns="http://www.w3.org/2000/svg">
<path d="M15.3459 5.99171H19.1742C19.6871 7.13235 19.9935 8.3818 20.0461 9.70156H15.6538C15.6353 8.30704 15.5198 7.07832 15.3459 5.99171ZM13.673 0.74227C15.8692 1.59571 17.6716 3.21081 18.8011 5.25004H15.2215C14.8152 3.1738 14.1978 1.69786 13.673 0.74227ZM10.468 5.25004V0.0716553C11.2571 0.106444 12.0239 0.231537 12.7567 0.43657C13.3118 1.37143 14.0291 2.9325 14.4813 5.25004H10.468ZM5.59829 14.1531C5.42508 13.0657 5.30517 11.8444 5.28667 10.4432H9.72634V14.1531H5.59829ZM5.59089 5.99171H9.72634V9.70156H5.28223C5.30073 8.30556 5.41768 7.07906 5.59089 5.99171ZM7.44803 0.420286C8.1786 0.223395 8.93952 0.0983023 9.72634 0.0731357V5.25004H5.71302C6.16824 2.91992 6.89066 1.35293 7.44803 0.420286ZM1.28445 5.25004C2.43248 3.1775 4.29111 1.55426 6.53685 0.711922C6.00761 1.66677 5.38289 3.15086 4.97208 5.25004H1.28445ZM4.54055 9.70156H0.054986C0.103839 8.38328 0.400656 7.13013 0.912129 5.99171H4.84699C4.67453 7.07906 4.55832 8.30704 4.54055 9.70156ZM4.85662 14.1531H0.940996C0.427303 13.011 0.0979172 11.7667 0.0498047 10.4432H4.54351C4.56128 11.8444 4.68267 13.0643 4.85662 14.1531ZM4.97801 14.8947C5.39177 17.0147 6.02612 18.4973 6.55758 19.441C4.30369 18.6024 2.44433 16.9725 1.29481 14.8947H4.97801ZM9.72634 14.8947V20.0717C8.94766 20.0472 8.19636 19.9244 7.47245 19.7312C6.91361 18.8163 6.18748 17.2419 5.72856 14.8947H9.72634ZM14.4673 14.8947C14.0106 17.2278 13.2889 18.7963 12.7323 19.7149C12.0076 19.9155 11.2474 20.0243 10.468 20.0591V14.8947H14.4673ZM10.468 10.4432H14.9077C14.8907 11.8444 14.7685 13.065 14.5953 14.1531H10.468V10.4432ZM14.9121 9.70156H10.468V5.99171H14.6027C14.7767 7.07906 14.8936 8.30556 14.9121 9.70156ZM15.6508 10.4432H20.0372C19.9884 11.766 19.6627 13.0102 19.1512 14.1531H15.3377C15.5109 13.0643 15.6323 11.8444 15.6508 10.4432ZM18.7952 14.8947C17.6693 16.9421 15.8588 18.558 13.6531 19.4099C14.1823 18.4654 14.8085 16.9925 15.2171 14.8947H18.7952Z" fill="white"/>
</svg>
