<svg width="48" height="51" viewBox="0 0 48 51" fill="none" xmlns="http://www.w3.org/2000/svg">
<path d="M36.2426 46.8426L47.6576 50.0717C47.6576 50.0717 47.6228 38.383 47.2088 26.0334C47.1862 25.3468 47.1852 24.7555 47.1903 24.3241C47.1996 24.0935 47.2047 23.8609 47.2067 23.6283C47.2078 23.5903 47.2088 23.5709 47.2088 23.5709V23.5729C47.2078 23.534 47.2088 23.4961 47.2088 23.4571C47.2088 10.5418 36.7386 0.0716553 23.8233 0.0716553C10.908 0.0716553 0.437866 10.5418 0.437866 23.4571C0.437866 36.3724 10.908 46.8426 23.8233 46.8426C28.3856 46.8426 32.6426 45.535 36.2406 43.2753V46.8426H36.2426ZM23.8254 35.8754C16.9676 35.8754 11.4071 30.316 11.4071 23.4581C11.4071 16.6003 16.9665 11.0409 23.8254 11.0409C30.6842 11.0409 36.2426 16.6003 36.2426 23.4581C36.2426 30.316 30.6832 35.8754 23.8254 35.8754Z" fill="#EFEFEF"/>
<circle cx="24.0477" cy="24.7952" r="14.4916" fill="#EFEFEF"/>
<path d="M29.3456 19.9917H33.1739C33.6869 21.1324 33.9933 22.3818 34.0459 23.7016H29.6536C29.6351 22.307 29.5196 21.0783 29.3456 19.9917ZM27.6728 14.7423C29.869 15.5957 31.6713 17.2108 32.8009 19.25H29.2213C28.8149 17.1738 28.1976 15.6979 27.6728 14.7423ZM24.4678 19.25V14.0717C25.2568 14.1064 26.0237 14.2315 26.7564 14.4366C27.3116 15.3714 28.0288 16.9325 28.4811 19.25H24.4678ZM19.598 28.1531C19.4248 27.0657 19.3049 25.8444 19.2864 24.4432H23.7261V28.1531H19.598ZM19.5906 19.9917H23.7261V23.7016H19.282C19.3005 22.3056 19.4174 21.0791 19.5906 19.9917ZM21.4478 14.4203C22.1784 14.2234 22.9393 14.0983 23.7261 14.0731V19.25H19.7128C20.168 16.9199 20.8904 15.3529 21.4478 14.4203ZM15.2842 19.25C16.4322 17.1775 18.2909 15.5543 20.5366 14.7119C20.0074 15.6668 19.3826 17.1509 18.9718 19.25H15.2842ZM18.5403 23.7016H14.0547C14.1036 22.3833 14.4004 21.1301 14.9119 19.9917H18.8467C18.6743 21.0791 18.5581 22.307 18.5403 23.7016ZM18.8564 28.1531H14.9408C14.4271 27.011 14.0977 25.7667 14.0496 24.4432H18.5433C18.561 25.8444 18.6824 27.0643 18.8564 28.1531ZM18.9778 28.8947C19.3915 31.0147 20.0259 32.4973 20.5573 33.441C18.3034 32.6024 16.4441 30.9725 15.2946 28.8947H18.9778ZM23.7261 28.8947V34.0717C22.9474 34.0472 22.1961 33.9244 21.4722 33.7312C20.9134 32.8163 20.1872 31.2419 19.7283 28.8947H23.7261ZM28.467 28.8947C28.0103 31.2278 27.2886 32.7963 26.732 33.7149C26.0074 33.9155 25.2472 34.0243 24.4678 34.0591V28.8947H28.467ZM24.4678 24.4432H28.9074C28.8904 25.8444 28.7683 27.065 28.5951 28.1531H24.4678V24.4432ZM28.9119 23.7016H24.4678V19.9917H28.6025C28.7764 21.0791 28.8934 22.3056 28.9119 23.7016ZM29.6506 24.4432H34.037C33.9881 25.766 33.6624 27.0102 33.151 28.1531H29.3375C29.5107 27.0643 29.6321 25.8444 29.6506 24.4432ZM32.7949 28.8947C31.6691 30.9421 29.8586 32.558 27.6528 33.4099C28.1821 32.4654 28.8083 30.9925 29.2168 28.8947H32.7949Z" fill="#1B1B1B"/>
</svg>
