<svg width="21" height="21" viewBox="0 0 21 21" fill="none" xmlns="http://www.w3.org/2000/svg">
<path d="M15.7355 6.85402H19.5638C20.0768 7.99466 20.3832 9.2441 20.4358 10.5639H16.0435C16.0249 9.16934 15.9095 7.94062 15.7355 6.85402ZM14.0627 1.60457C16.2588 2.45802 18.0612 4.07312 19.1908 6.11235H15.6112C15.2048 4.03611 14.5875 2.56016 14.0627 1.60457ZM10.8577 6.11235V0.93396C11.6467 0.968749 12.4135 1.09384 13.1463 1.29887C13.7015 2.23374 14.4187 3.7948 14.871 6.11235H10.8577ZM5.98794 15.0154C5.81473 13.928 5.69482 12.7067 5.67631 11.3055H10.116V15.0154H5.98794ZM5.98053 6.85402H10.116V10.5639H5.67187C5.69038 9.16786 5.80733 7.94136 5.98053 6.85402ZM7.83768 1.28259C8.56825 1.0857 9.32916 0.960607 10.116 0.93544V6.11235H6.10267C6.55788 3.78222 7.28031 2.21523 7.83768 1.28259ZM1.67409 6.11235C2.82213 4.03981 4.68076 2.41657 6.9265 1.57423C6.39726 2.52907 5.77254 4.01316 5.36173 6.11235H1.67409ZM4.9302 10.5639H0.444634C0.493487 9.24558 0.790304 7.99243 1.30178 6.85402H5.23664C5.06418 7.94136 4.94797 9.16934 4.9302 10.5639ZM5.24626 15.0154H1.33064C0.816951 13.8733 0.487566 12.629 0.439453 11.3055H4.93316C4.95093 12.7067 5.07232 13.9266 5.24626 15.0154ZM5.36765 15.7571C5.78142 17.877 6.41577 19.3596 6.94723 20.3033C4.69334 19.4647 2.83398 17.8348 1.68446 15.7571H5.36765ZM10.116 15.7571V20.934C9.33731 20.9095 8.58601 20.7867 7.8621 20.5935C7.30326 19.6786 6.57713 18.1042 6.11821 15.7571H10.116ZM14.8569 15.7571C14.4002 18.0901 13.6785 19.6586 13.1219 20.5772C12.3973 20.7778 11.6371 20.8866 10.8577 20.9214V15.7571H14.8569ZM10.8577 11.3055H15.2973C15.2803 12.7067 15.1582 13.9273 14.985 15.0154H10.8577V11.3055ZM15.3018 10.5639H10.8577V6.85402H14.9924C15.1663 7.94136 15.2833 9.16786 15.3018 10.5639ZM16.0405 11.3055H20.4269C20.378 12.6283 20.0523 13.8725 19.5409 15.0154H15.7274C15.9006 13.9266 16.022 12.7067 16.0405 11.3055ZM19.1848 15.7571C18.059 17.8044 16.2485 19.4203 14.0427 20.2722C14.5719 19.3277 15.1982 17.8548 15.6067 15.7571H19.1848Z" fill="#1B1B1B"/>
</svg>
