<svg width="29" height="30" viewBox="0 0 29 30" fill="none" xmlns="http://www.w3.org/2000/svg">
<path d="M21.4829 28.0626L28.3319 30C28.3319 30 28.311 22.9868 28.0626 15.5771C28.049 15.1651 28.0484 14.8103 28.0515 14.5515C28.057 14.4131 28.0601 14.2735 28.0613 14.134C28.0619 14.1112 28.0626 14.0995 28.0626 14.0995V14.1008C28.0619 14.0774 28.0626 14.0546 28.0626 14.0313C28.0626 6.2821 21.7804 0 14.0313 0C6.2821 0 0 6.2821 0 14.0313C0 21.7805 6.2821 28.0626 14.0313 28.0626C16.7687 28.0626 19.3228 27.278 21.4816 25.9222V28.0626H21.4829ZM14.0325 21.4822C9.91781 21.4822 6.58154 18.1466 6.58154 14.0319C6.58154 9.9172 9.9172 6.58154 14.0325 6.58154C18.1478 6.58154 21.4829 9.9172 21.4829 14.0319C21.4829 18.1466 18.1472 21.4822 14.0325 21.4822Z" fill="#EFEFEF"/>
</svg>
