<svg width="15" height="16" viewBox="0 0 15 16" fill="none" xmlns="http://www.w3.org/2000/svg">
<path d="M10.9644 15.0067L14.389 15.9755C14.389 15.9755 14.3785 12.4689 14.2543 8.76399C14.2475 8.55801 14.2472 8.38062 14.2488 8.25119C14.2515 8.18202 14.2531 8.11223 14.2537 8.04244C14.254 8.03107 14.2543 8.02523 14.2543 8.02523V8.02584C14.254 8.01416 14.2543 8.00278 14.2543 7.9911C14.2543 4.11651 11.1132 0.975464 7.23866 0.975464C3.36407 0.975464 0.223022 4.11651 0.223022 7.9911C0.223022 11.8657 3.36407 15.0067 7.23866 15.0067C8.60736 15.0067 9.88443 14.6145 10.9638 13.9366V15.0067H10.9644ZM7.23927 11.7166C5.18193 11.7166 3.51379 10.0488 3.51379 7.99141C3.51379 5.93406 5.18162 4.26623 7.23927 4.26623C9.29693 4.26623 10.9644 5.93406 10.9644 7.99141C10.9644 10.0488 9.29662 11.7166 7.23927 11.7166Z" fill="#858585"/>
</svg>
