<svg width="15" height="15" viewBox="0 0 15 15" fill="none" xmlns="http://www.w3.org/2000/svg">
<path d="M10.9644 14.0326L14.389 15.0013C14.389 15.0013 14.3785 11.4948 14.2543 7.78987C14.2475 7.58389 14.2472 7.4065 14.2488 7.27707C14.2515 7.2079 14.2531 7.13811 14.2537 7.06832C14.254 7.05695 14.2543 7.05111 14.2543 7.05111V7.05172C14.254 7.04004 14.2543 7.02866 14.2543 7.01698C14.2543 3.14239 11.1132 0.00134277 7.23866 0.00134277C3.36407 0.00134277 0.223022 3.14239 0.223022 7.01698C0.223022 10.8916 3.36407 14.0326 7.23866 14.0326C8.60736 14.0326 9.88443 13.6403 10.9638 12.9624V14.0326H10.9644ZM7.23927 10.7425C5.18193 10.7425 3.51379 9.07463 3.51379 7.01729C3.51379 4.95994 5.18162 3.29211 7.23927 3.29211C9.29693 3.29211 10.9644 4.95994 10.9644 7.01729C10.9644 9.07463 9.29662 10.7425 7.23927 10.7425Z" fill="#1B1B1B"/>
</svg>
