<svg width="33" height="21" viewBox="0 0 33 21" fill="none" xmlns="http://www.w3.org/2000/svg">
<path d="M30.4208 9.72249L27.2034 19.1759H22.3214C22.3214 17.9585 21.4022 17.0517 20.1227 17.0517H12.545C12.545 17.0517 10.8183 11.1883 9.89908 9.69764C9.3028 8.7287 8.38355 8.12 7.17858 8.12C5.31523 8.12 3.9115 9.66037 2.89286 11.884C1.65063 14.5921 0.942554 17.8094 0.805908 20.9647H27.8245C28.2096 20.9647 28.5575 20.7163 28.6817 20.3436L32.1103 10.2939L30.4208 9.72249ZM16.4581 5.01441C16.4581 7.25044 14.6444 9.0641 12.4084 9.0641C10.1724 9.0641 8.3587 7.25044 8.3587 5.01441C8.3587 2.77839 10.1724 0.964722 12.4084 0.964722C12.6693 0.964722 12.9177 0.989566 13.1537 1.03926L12.2345 3.01441C12.1972 3.01441 12.1475 3.00199 12.1103 3.00199C11.1662 3.00199 10.396 3.77218 10.396 4.71627C10.396 5.66037 11.1662 6.43056 12.1103 6.43056C13.0544 6.43056 13.8245 5.66037 13.8245 4.71627C13.8245 4.25665 13.6382 3.83429 13.3401 3.52373L14.3214 1.43677C15.5885 2.13242 16.4581 3.47404 16.4581 5.01441Z" fill="#1B1B1B"/>
</svg>
