<?xml version="1.0" standalone="no"?>
<!DOCTYPE svg PUBLIC "-//W3C//DTD SVG 20010904//EN"
 "http://www.w3.org/TR/2001/REC-SVG-20010904/DTD/svg10.dtd">
<svg version="1.0" xmlns="http://www.w3.org/2000/svg"
 width="48.000000pt" height="52.000000pt" viewBox="0 0 48.000000 52.000000"
 preserveAspectRatio="xMidYMid meet">

<g transform="translate(0.000000,52.000000) scale(0.100000,-0.100000)"
fill="#000000" stroke="none">
<path d="M225 351 c-6 -5 -21 -11 -35 -13 -19 -2 -25 -9 -25 -28 0 -20 5 -25
25 -25 19 0 26 6 28 25 2 14 9 31 14 38 12 14 7 16 -7 3z"/>
<path d="M287 354 c-4 -4 -7 -17 -7 -29 0 -27 -79 -105 -107 -105 -26 0 -45
-22 -37 -44 8 -21 50 -21 58 0 3 9 4 19 1 23 -7 13 89 99 115 103 33 4 37 51
5 56 -12 2 -24 0 -28 -4z"/>
<path d="M267 234 c-4 -4 -7 -17 -7 -29 0 -11 -6 -27 -12 -35 -11 -12 -10 -12
2 -3 8 6 26 13 40 15 33 4 37 51 5 56 -12 2 -24 0 -28 -4z"/>
</g>
</svg>
