<svg width="48" height="51" viewBox="0 0 48 51" fill="none" xmlns="http://www.w3.org/2000/svg">
<path d="M36.2521 47.6014L47.6672 50.8304C47.6672 50.8304 47.6323 39.1418 47.2183 26.7922C47.1958 26.1056 47.1947 25.5143 47.1999 25.0829C47.2091 24.8523 47.2142 24.6197 47.2163 24.387C47.2173 24.3491 47.2183 24.3297 47.2183 24.3297V24.3317C47.2173 24.2928 47.2183 24.2548 47.2183 24.2159C47.2183 11.3006 36.7481 0.830444 23.8328 0.830444C10.9176 0.830444 0.447388 11.3006 0.447388 24.2159C0.447388 37.1312 10.9176 47.6014 23.8328 47.6014C28.3952 47.6014 32.6521 46.2937 36.2501 44.0341V47.6014H36.2521ZM23.8349 36.6342C16.9771 36.6342 11.4166 31.0747 11.4166 24.2169C11.4166 17.3591 16.9761 11.7997 23.8349 11.7997C30.6937 11.7997 36.2521 17.3591 36.2521 24.2169C36.2521 31.0747 30.6927 36.6342 23.8349 36.6342Z" fill="#EFEFEF"/>
<circle cx="24.5917" cy="25.554" r="14.4916" fill="#EFEFEF"/>
<path fill-rule="evenodd" clip-rule="evenodd" d="M25.5947 25.1918L28.1616 26.6738C28.4122 26.8184 28.4932 27.1471 28.3521 27.3915C28.2068 27.6432 27.8931 27.7342 27.6353 27.5854L25.0249 26.0783C24.7576 26.2858 24.4219 26.4094 24.0573 26.4094C23.1852 26.4094 22.4783 25.7025 22.4783 24.8304C22.4783 24.143 22.9177 23.5581 23.5309 23.3413V18.5183C23.5309 18.2256 23.7751 17.9883 24.0573 17.9883C24.3479 17.9883 24.5836 18.2335 24.5836 18.5183V23.3413C25.1968 23.5581 25.6362 24.143 25.6362 24.8304C25.6362 24.9548 25.6218 25.0757 25.5947 25.1918ZM24.0573 34.8304C29.5801 34.8304 34.0573 30.3533 34.0573 24.8304C34.0573 19.3076 29.5801 14.8304 24.0573 14.8304C18.5344 14.8304 14.0573 19.3076 14.0573 24.8304C14.0573 30.3533 18.5344 34.8304 24.0573 34.8304Z" fill="#1B1B1B"/>
</svg>
