<svg width="21" height="21" viewBox="0 0 21 21" fill="none" xmlns="http://www.w3.org/2000/svg">
<path fill-rule="evenodd" clip-rule="evenodd" d="M12.3275 11.1918L14.8944 12.6738C15.1449 12.8184 15.226 13.1471 15.0849 13.3915C14.9396 13.6432 14.6259 13.7342 14.368 13.5854L11.7577 12.0783C11.4904 12.2858 11.1546 12.4094 10.79 12.4094C9.91801 12.4094 9.21109 11.7025 9.21109 10.8304C9.21109 10.143 9.65047 9.5581 10.2637 9.34135V4.51825C10.2637 4.22559 10.5079 3.98834 10.79 3.98834C11.0807 3.98834 11.3164 4.23349 11.3164 4.51825V9.34135C11.9296 9.5581 12.369 10.143 12.369 10.8304C12.369 10.9548 12.3546 11.0757 12.3275 11.1918ZM10.79 20.8304C16.3129 20.8304 20.79 16.3533 20.79 10.8304C20.79 5.3076 16.3129 0.830444 10.79 0.830444C5.26719 0.830444 0.790039 5.3076 0.790039 10.8304C0.790039 16.3533 5.26719 20.8304 10.79 20.8304Z" fill="#1C6EC4"/>
</svg>
