<svg width="43" height="46" viewBox="0 0 43 46" fill="none" xmlns="http://www.w3.org/2000/svg">
<path d="M32.3552 42.2732L42.6727 45.1918C42.6727 45.1918 42.6412 34.627 42.267 23.4647C42.2466 22.8442 42.2457 22.3097 42.2503 21.9198C42.2586 21.7113 42.2633 21.5011 42.2651 21.2908C42.266 21.2566 42.267 21.239 42.267 21.239V21.2408C42.266 21.2056 42.267 21.1713 42.267 21.1361C42.267 9.46261 32.8035 -0.00088501 21.1299 -0.00088501C9.45642 -0.00088501 -0.00708008 9.46261 -0.00708008 21.1361C-0.00708008 32.8097 9.45642 42.2732 21.1299 42.2732C25.2536 42.2732 29.1013 41.0913 32.3533 39.0489V42.2732H32.3552ZM21.1318 32.3604C14.9333 32.3604 9.9075 27.3355 9.9075 21.1371C9.9075 14.9386 14.9324 9.9137 21.1318 9.9137C27.3312 9.9137 32.3552 14.9386 32.3552 21.1371C32.3552 27.3355 27.3303 32.3604 21.1318 32.3604Z" fill="white"/>
</svg>
