<svg width="22" height="22" viewBox="0 0 22 22" fill="none" xmlns="http://www.w3.org/2000/svg">
<path fill-rule="evenodd" clip-rule="evenodd" d="M14.7515 6.75765C14.8223 6.90135 14.9257 7.02661 15.0532 7.12357C15.1825 7.22129 15.332 7.28871 15.4908 7.32086L20.4956 8.33295C20.6921 8.37117 20.8735 8.46493 21.0183 8.60311C21.1632 8.74129 21.2653 8.91809 21.3127 9.11257C21.3582 9.30614 21.3463 9.50877 21.2786 9.6957C21.2108 9.88264 21.0901 10.0458 20.9311 10.1653L17.0371 13.1192C16.8852 13.233 16.7678 13.3866 16.6978 13.563C16.6283 13.7384 16.6094 13.9297 16.6432 14.1153L17.6938 19.9632C17.7284 20.1582 17.7057 20.359 17.6285 20.5414C17.5512 20.7237 17.4228 20.8798 17.2586 20.9906C17.0926 21.1036 16.8984 21.1682 16.6977 21.177C16.4971 21.1858 16.2979 21.1385 16.1227 21.0404L11.6238 18.5121C11.4626 18.4219 11.2809 18.3745 11.0962 18.3745C10.9115 18.3745 10.7299 18.4219 10.5687 18.5121L6.06943 21.0404C5.89431 21.1388 5.69517 21.1863 5.4945 21.1775C5.29382 21.1687 5.09962 21.104 4.9338 20.9906C4.76967 20.8798 4.6412 20.7237 4.56395 20.5414C4.48671 20.359 4.464 20.1582 4.49858 19.9632L5.54923 14.1163C5.58301 13.9307 5.56407 13.7394 5.4946 13.564C5.42465 13.3876 5.30723 13.234 5.15532 13.1203L1.26128 10.1663C1.10234 10.0468 0.981604 9.88366 0.913836 9.69672C0.846069 9.50979 0.834207 9.30717 0.879669 9.11359C0.927103 8.91918 1.02925 8.74243 1.17401 8.60426C1.31877 8.46609 1.50009 8.37229 1.6965 8.33397L6.70057 7.32189C6.85935 7.28999 7.00885 7.22254 7.13783 7.12459C7.2654 7.02755 7.3688 6.90231 7.43992 6.75867L10.1427 1.29276C10.2321 1.11668 10.3685 0.968797 10.5368 0.865498C10.7051 0.762198 10.8987 0.70752 11.0962 0.70752C11.2937 0.70752 11.4873 0.762198 11.6556 0.865498C11.8239 0.968797 11.9603 1.11668 12.0498 1.29276L14.7515 6.75765Z" fill="#EFEFEF"/>
</svg>
