<svg width="68" height="72" viewBox="0 0 68 72" fill="none" xmlns="http://www.w3.org/2000/svg">
<path d="M51.11 66.5195L67.312 71.1027C67.312 71.1027 67.2625 54.5123 66.6749 36.9838C66.6429 36.0093 66.6414 35.17 66.6487 34.5577C66.6618 34.2304 66.6691 33.9002 66.672 33.57C66.6734 33.5162 66.6749 33.4886 66.6749 33.4886V33.4915C66.6734 33.4362 66.6749 33.3824 66.6749 33.3271C66.6749 14.9957 51.8139 0.134766 33.4825 0.134766C15.1511 0.134766 0.290161 14.9957 0.290161 33.3271C0.290161 51.6585 15.1511 66.5195 33.4825 66.5195C39.9581 66.5195 46.0002 64.6635 51.107 61.4563V66.5195H51.11ZM33.4854 50.9531C23.7517 50.9531 15.8594 43.0623 15.8594 33.3286C15.8594 23.5949 23.7503 15.704 33.4854 15.704C43.2206 15.704 51.11 23.5949 51.11 33.3286C51.11 43.0623 43.2191 50.9531 33.4854 50.9531Z" fill="#EFEFEF"/>
</svg>
