<svg width="21" height="21" viewBox="0 0 21 21" fill="none" xmlns="http://www.w3.org/2000/svg">
<path fill-rule="evenodd" clip-rule="evenodd" d="M11.5945 11.1918L14.1615 12.6738C14.412 12.8184 14.4931 13.1471 14.352 13.3915C14.2067 13.6432 13.893 13.7342 13.6351 13.5854L11.0247 12.0783C10.7575 12.2858 10.4217 12.4094 10.0571 12.4094C9.1851 12.4094 8.47818 11.7025 8.47818 10.8304C8.47818 10.143 8.91755 9.5581 9.53081 9.34135V4.51825C9.53081 4.22559 9.77495 3.98834 10.0571 3.98834C10.3478 3.98834 10.5834 4.23349 10.5834 4.51825V9.34135C11.1967 9.5581 11.6361 10.143 11.6361 10.8304C11.6361 10.9548 11.6217 11.0757 11.5945 11.1918ZM10.0571 20.8304C15.58 20.8304 20.0571 16.3533 20.0571 10.8304C20.0571 5.3076 15.58 0.830444 10.0571 0.830444C4.53428 0.830444 0.0571289 5.3076 0.0571289 10.8304C0.0571289 16.3533 4.53428 20.8304 10.0571 20.8304Z" fill="white"/>
</svg>
