<svg width="27" height="19" viewBox="0 0 27 19" fill="none" xmlns="http://www.w3.org/2000/svg">
<path d="M26.2863 3.09701C26.1345 2.53355 25.8377 2.01968 25.4255 1.60657C25.0133 1.19345 24.5001 0.895492 23.937 0.742344C21.849 0.169011 13.4957 0.159678 13.4957 0.159678C13.4957 0.159678 5.14368 0.150344 3.05435 0.698345C2.49158 0.85854 1.97944 1.16071 1.5671 1.57586C1.15476 1.991 0.85606 2.50517 0.699679 3.06901C0.149012 5.15701 0.143679 9.48768 0.143679 9.48768C0.143679 9.48768 0.138345 13.8397 0.685012 15.9063C0.991679 17.049 1.89168 17.9517 3.03568 18.2597C5.14501 18.833 13.4757 18.8423 13.4757 18.8423C13.4757 18.8423 21.829 18.8517 23.917 18.305C24.4803 18.1521 24.994 17.8549 25.4072 17.4426C25.8204 17.0303 26.1189 16.5173 26.273 15.9543C26.825 13.8677 26.829 9.53835 26.829 9.53835C26.829 9.53835 26.8557 5.18501 26.2863 3.09701ZM10.8237 13.4997L10.8303 5.49968L17.773 9.50634L10.8237 13.4997Z" fill="white"/>
</svg>
